<?xml version="1.0" standalone="no"?>
<!DOCTYPE svg PUBLIC "-//W3C//DTD SVG 20010904//EN"
 "http://www.w3.org/TR/2001/REC-SVG-20010904/DTD/svg10.dtd">
<svg version="1.0" xmlns="http://www.w3.org/2000/svg"
 width="1687.000000pt" height="1607.000000pt" viewBox="0 0 1687.000000 1607.000000"
 preserveAspectRatio="xMidYMid meet">

<g transform="translate(0.000000,1607.000000) scale(0.100000,-0.100000)"
fill="#000000" stroke="none">
<path d="M10750 15480 c-302 -32 -474 -61 -695 -116 -478 -119 -896 -309
-1278 -581 -67 -47 -131 -95 -143 -105 -17 -15 -50 -19 -214 -28 -297 -15
-488 -50 -678 -124 -453 -175 -740 -479 -892 -946 -29 -90 -62 -243 -145 -679
-40 -211 -67 -302 -125 -428 -38 -82 -71 -132 -276 -424 -61 -85 -139 -202
-174 -260 -35 -57 -66 -107 -70 -112 -4 -4 -107 42 -231 102 -528 258 -938
371 -1459 402 -254 15 -668 -5 -861 -41 -28 -6 -66 -10 -84 -10 -36 0 -44 14
-115 195 -113 287 -334 654 -500 829 -253 265 -503 326 -728 176 -120 -80
-211 -203 -321 -431 -191 -395 -341 -938 -496 -1794 -31 -170 -65 -329 -75
-351 -10 -23 -53 -91 -95 -150 -294 -415 -506 -924 -611 -1469 -10 -49 -22
-93 -28 -97 -6 -4 -40 -10 -76 -13 -157 -14 -330 -54 -330 -75 0 -12 5 -13
211 -46 l167 -27 5 -38 c3 -21 5 -145 6 -276 1 -131 4 -292 7 -359 l7 -120
-79 -23 c-102 -29 -250 -102 -300 -146 l-39 -35 65 6 c36 3 105 9 155 14 212
21 223 21 230 10 4 -6 18 -54 31 -106 36 -141 107 -331 190 -504 l74 -155 -47
-40 c-26 -22 -74 -63 -107 -91 -91 -75 -214 -240 -194 -259 3 -3 64 27 134 68
205 117 306 169 314 160 3 -4 38 -51 77 -103 144 -193 321 -374 536 -549 69
-57 128 -108 130 -116 5 -13 -155 -301 -276 -496 -35 -57 -143 -222 -239 -365
-177 -265 -228 -353 -228 -397 0 -47 289 -451 523 -730 228 -272 292 -341 669
-722 l257 -260 -15 -110 c-19 -132 -13 -441 11 -603 56 -390 203 -724 400
-911 132 -125 221 -162 391 -162 86 0 124 4 175 21 125 42 274 143 380 258 66
72 163 227 200 320 12 31 24 59 25 61 3 4 338 -168 377 -193 19 -13 25 -32 39
-118 30 -187 123 -423 225 -566 113 -159 310 -264 524 -279 106 -7 205 13 308
62 100 48 150 85 266 193 55 52 109 99 120 104 15 7 88 -8 275 -56 479 -121
1123 -236 1321 -236 47 0 63 5 89 26 17 15 37 38 44 53 38 74 96 581 96 833 0
38 3 68 8 68 4 0 43 -41 87 -91 306 -346 725 -579 1315 -732 227 -60 509 -99
695 -99 l130 0 54 -83 c127 -198 330 -384 526 -484 316 -160 703 -183 1033
-62 344 125 580 380 669 719 43 166 42 429 -3 608 -5 19 22 35 258 156 272
139 518 279 791 450 87 55 164 97 171 95 7 -3 31 -38 54 -79 108 -197 251
-337 433 -422 123 -58 184 -70 359 -69 133 0 169 4 250 26 208 55 389 157 530
300 131 133 225 292 294 498 78 234 101 436 93 799 -5 245 -20 376 -66 618
l-18 94 136 172 c177 224 234 305 425 609 266 423 396 648 535 923 163 326
204 432 189 498 -17 78 -182 375 -325 589 -154 227 -371 477 -600 690 -208
193 -373 310 -615 437 -76 39 -148 80 -160 90 l-23 18 25 34 c13 18 67 85 120
149 249 299 405 574 536 949 24 68 47 127 52 130 4 4 69 53 145 109 442 329
720 708 862 1177 60 198 77 308 82 530 11 456 -56 795 -227 1139 -130 263
-275 459 -511 690 -206 202 -352 315 -749 583 -229 154 -315 254 -555 652
-230 383 -338 524 -509 667 -294 247 -549 336 -966 336 -96 0 -211 -5 -255
-12 -102 -16 -288 -63 -385 -96 -118 -42 -121 -42 -306 13 -253 75 -363 98
-640 138 -129 18 -646 27 -774 14z m566 -265 c434 -17 937 -164 1344 -392 283
-160 477 -308 726 -557 264 -264 395 -440 564 -757 128 -239 149 -270 441
-626 373 -455 538 -709 689 -1061 107 -249 102 -249 -35 -3 -115 206 -335 515
-549 770 -108 128 -244 300 -286 361 -20 30 -77 127 -125 215 -156 286 -200
353 -360 552 -293 366 -705 704 -1108 909 -226 115 -337 156 -337 123 0 -5
-21 -19 -47 -31 -58 -26 -186 -27 -271 -3 -125 36 -262 133 -262 186 0 24 -19
36 -67 44 -38 5 -46 3 -81 -29 -21 -19 -77 -93 -124 -163 -242 -363 -397 -768
-454 -1193 -32 -235 -22 -622 22 -880 70 -407 273 -857 551 -1217 129 -167
370 -400 556 -537 254 -187 606 -349 975 -449 83 -23 152 -46 152 -52 0 -19
-108 -225 -156 -297 -59 -89 -177 -214 -262 -279 -132 -100 -290 -161 -447
-172 -78 -5 -216 8 -296 28 -106 26 -294 125 -375 197 -128 114 -241 258 -265
338 -14 48 -6 65 128 247 153 211 243 351 243 380 0 36 -29 92 -56 110 -39 25
-113 21 -576 -32 -285 -33 -487 -61 -520 -74 -30 -11 -53 -48 -63 -102 -8 -46
9 -67 220 -264 88 -83 190 -179 227 -215 l67 -65 -24 -89 c-64 -244 -265 -488
-497 -604 -302 -150 -655 -113 -946 100 -134 97 -258 246 -401 482 -49 79 -93
141 -101 141 -24 0 -39 -63 -39 -166 -1 -117 9 -174 48 -276 142 -366 561
-643 975 -643 50 0 114 -3 142 -6 l52 -7 153 -341 c437 -974 438 -976 458
-1086 28 -156 65 -300 77 -300 13 0 44 -37 44 -52 0 -5 -7 -8 -16 -8 -8 0 -12
-4 -9 -10 3 -5 14 -10 24 -10 10 0 44 -23 77 -51 32 -27 74 -63 92 -78 17 -16
32 -26 32 -24 0 2 19 -7 43 -20 97 -54 325 -67 464 -26 43 13 80 26 83 30 9
11 89 49 105 49 8 0 15 4 15 10 0 16 71 90 86 90 8 0 14 6 14 14 0 8 8 21 19
28 10 7 22 24 26 37 6 19 9 21 17 10 7 -11 8 -9 4 5 -4 11 6 50 24 93 41 99
52 190 38 338 l-11 120 47 225 c26 124 58 277 71 340 14 63 59 284 101 490 42
206 78 376 79 378 1 1 45 14 96 28 368 98 617 290 767 589 44 89 82 219 89
305 l6 75 271 0 c153 0 319 6 381 13 224 26 478 89 680 169 128 50 397 186
485 244 66 44 76 48 86 34 18 -24 28 -347 19 -633 -7 -256 -16 -355 -39 -432
-7 -25 -19 -74 -25 -110 -26 -141 -126 -426 -156 -442 -10 -6 -13 -17 -9 -32
4 -17 0 -28 -13 -37 -10 -8 -24 -32 -31 -54 -14 -49 -105 -204 -132 -227 -11
-9 -20 -21 -20 -27 0 -7 -7 -14 -15 -17 -8 -4 -15 -12 -15 -20 0 -36 -187
-274 -216 -274 -8 0 -14 -6 -14 -13 0 -19 -59 -97 -73 -97 -7 0 -25 -16 -40
-35 -15 -19 -32 -35 -38 -35 -6 0 -35 -27 -66 -60 -31 -34 -76 -72 -100 -86
-23 -14 -43 -29 -43 -33 0 -11 -47 -31 -78 -32 -24 -2 -24 -2 -4 -6 38 -8 41
-5 -118 -120 -58 -41 -121 -83 -140 -92 -19 -9 -57 -33 -83 -54 -27 -20 -61
-40 -75 -44 -15 -3 -39 -16 -54 -29 -38 -31 -172 -104 -192 -104 -9 0 -19 -7
-23 -16 -4 -12 -14 -14 -34 -10 -22 4 -29 2 -29 -10 0 -9 -23 -25 -57 -40
-104 -45 -117 -51 -178 -82 -187 -94 -653 -262 -728 -262 -16 0 -26 -4 -22
-10 5 -8 -7 -13 -35 -12 -3 0 -16 3 -30 7 -21 7 -23 6 -13 -7 10 -12 5 -17
-35 -31 -115 -40 -437 -109 -612 -131 -223 -28 -350 -35 -647 -35 -161 1 -327
-2 -370 -4 -43 -3 -60 -3 -38 1 22 4 -57 7 -175 8 -118 0 -260 6 -315 12 -174
21 -520 75 -525 82 -3 4 -27 10 -55 14 -98 13 -307 68 -325 86 -12 12 -21 15
-28 8 -11 -11 -89 7 -112 27 -15 12 -34 18 -120 35 -143 28 -587 246 -804 394
-49 34 -103 71 -120 82 -17 12 -52 44 -78 72 -26 27 -48 46 -50 40 -2 -5 -39
25 -83 67 -77 74 -79 76 -46 71 18 -3 49 -6 67 -6 18 0 39 -6 46 -13 7 -8 20
-12 28 -10 9 2 72 -5 140 -16 69 -12 131 -21 138 -21 21 0 14 18 -23 59 -19
21 -35 49 -35 62 -1 22 -2 23 -14 7 -20 -27 -25 -26 -93 32 -7 5 -20 10 -29
10 -9 0 -46 14 -81 30 -34 16 -78 30 -96 30 -64 0 -65 3 -71 235 -10 365 -36
575 -112 900 l-37 160 56 295 c73 380 109 600 146 896 46 365 54 514 48 829
-8 399 -23 491 -104 664 -36 79 -55 106 -117 165 -40 39 -75 81 -78 92 -13 50
57 351 129 558 121 347 318 692 562 981 106 126 307 326 431 429 556 463 1353
753 2135 775 121 4 231 6 245 4 14 -1 88 -5 166 -8z m2087 -79 c372 -71 649
-317 948 -841 143 -252 287 -453 400 -560 82 -77 150 -129 324 -245 356 -237
562 -406 742 -612 261 -297 411 -584 509 -973 22 -87 26 -129 31 -325 9 -356
-16 -552 -96 -768 -32 -85 -98 -232 -105 -232 -2 0 7 39 20 88 66 241 78 322
77 557 0 312 -23 477 -99 720 -55 177 -153 381 -263 546 -226 340 -473 569
-986 914 -104 70 -218 150 -251 177 -125 101 -237 253 -464 633 -222 370 -363
536 -580 679 -207 137 -399 193 -703 203 -98 3 -174 10 -170 14 7 7 90 23 218
43 57 8 375 -4 448 -18z m-5129 -793 c-46 -56 -111 -96 -215 -132 -119 -42
-315 -139 -397 -198 -95 -68 -237 -215 -297 -308 -148 -228 -200 -387 -290
-880 -25 -137 -53 -279 -61 -315 -32 -142 -25 -131 -135 -204 -56 -37 -103
-65 -106 -62 -2 2 13 39 35 82 78 156 117 300 192 704 76 413 113 538 211 715
165 299 396 472 774 579 89 26 306 67 314 60 3 -2 -9 -21 -25 -41z m-5839
-1228 c190 -83 421 -414 623 -890 79 -186 83 -166 -48 -209 -61 -20 -120 -36
-130 -36 -13 0 -24 18 -41 73 -33 98 -150 337 -203 411 -116 162 -246 222
-374 171 -157 -63 -293 -401 -418 -1035 l-44 -225 -48 -45 c-179 -170 -197
-184 -200 -168 -8 41 143 729 214 973 142 493 278 789 432 938 81 80 132 89
237 42z m-90 -715 c3 -5 2 -10 -4 -10 -6 0 -17 -12 -25 -27 -11 -20 -15 -23
-16 -10 0 19 21 57 32 57 4 0 10 -4 13 -10z m85 -31 c0 -12 -27 -12 -35 1 -4
6 1 7 11 3 13 -5 15 -3 9 7 -5 9 -4 11 3 6 7 -4 12 -11 12 -17z m-174 -123
c-14 -31 -27 -56 -30 -56 -3 0 5 25 19 56 14 31 25 59 25 62 0 3 2 3 5 0 3 -3
-5 -31 -19 -62z m45 13 c-5 -13 -10 -19 -10 -12 -1 15 10 45 15 40 3 -2 0 -15
-5 -28z m190 -16 c-10 -17 -10 -16 -11 3 0 23 13 41 18 25 2 -6 -1 -18 -7 -28z
m5009 -28 c108 -56 159 -206 181 -530 21 -318 -9 -712 -96 -1258 -48 -303 -66
-397 -75 -392 -12 7 -150 293 -150 310 0 9 15 98 34 198 54 286 86 597 86 830
0 242 -70 376 -211 406 -153 33 -327 -70 -586 -346 -64 -68 -122 -123 -130
-123 -25 0 -193 141 -193 162 0 19 367 383 475 471 178 144 373 257 489 283
66 14 135 10 176 -11z m-4978 -47 c-7 -7 -12 -8 -12 -2 0 14 12 26 19 19 2 -3
-1 -11 -7 -17z m9868 -156 c87 -106 78 -289 -16 -328 -20 -8 -45 -12 -57 -8
-67 20 -129 107 -143 201 -11 77 36 174 91 185 40 8 95 -14 125 -50z m-8010
-97 c872 -75 1593 -405 2185 -1000 496 -498 824 -1117 955 -1796 44 -233 68
-553 55 -741 l-7 -106 -61 -7 c-145 -17 -404 -100 -361 -116 10 -4 102 -15
204 -24 102 -9 188 -19 193 -22 18 -11 -1 -154 -49 -368 -29 -128 -72 -275
-85 -291 -7 -8 -26 -8 -72 2 -142 30 -376 39 -451 17 -23 -6 17 -25 189 -90
198 -74 265 -104 265 -119 0 -48 -251 -479 -345 -592 l-43 -51 -58 51 c-106
93 -256 179 -403 232 -41 15 -77 24 -80 20 -3 -3 91 -100 209 -215 l214 -209
-44 -46 c-25 -25 -79 -74 -120 -108 -427 -352 -936 -555 -1630 -647 -143 -19
-211 -22 -515 -22 -370 0 -493 8 -775 49 -990 144 -1794 507 -2341 1056 -130
131 -282 313 -276 331 2 7 75 49 163 94 87 45 164 85 169 87 25 14 -304 -4
-359 -19 -32 -9 -64 -14 -71 -12 -38 15 -217 441 -259 618 l-14 57 30 6 c17 3
94 6 172 7 77 1 166 4 196 8 l55 7 -40 20 c-104 54 -234 94 -357 109 -77 10
-89 21 -99 91 -13 94 -22 597 -11 613 8 11 47 5 228 -38 121 -29 225 -54 232
-56 6 -2 12 2 12 10 0 29 -134 126 -260 186 -69 34 -136 66 -150 73 -23 11
-25 17 -24 77 2 131 110 512 214 759 256 609 631 1084 1163 1470 469 341 997
551 1567 624 297 38 437 43 690 21z m2840 -355 c0 -5 -4 -10 -10 -10 -5 0 -10
5 -10 10 0 6 5 10 10 10 6 0 10 -4 10 -10z m-40 -8 c0 -5 -17 -16 -37 -25
l-38 -17 28 25 c28 25 47 32 47 17z m-110 -66 c0 -2 -8 -10 -17 -17 -16 -13
-17 -12 -4 4 13 16 21 21 21 13z m187 -143 c-2 -16 -4 -5 -4 22 0 28 2 40 4
28 2 -13 2 -35 0 -50z m7237 -3360 c-249 -333 -587 -627 -979 -853 -286 -164
-733 -346 -1060 -430 -140 -36 -159 -37 -234 -6 -108 44 -190 60 -301 60 -92
0 -116 -4 -197 -32 -118 -40 -190 -81 -272 -154 l-66 -59 -325 5 c-328 5 -447
15 -691 56 -379 65 -766 188 -1074 343 -151 75 -281 150 -268 154 7 3 56 -10
110 -27 288 -92 749 -179 1143 -215 342 -31 1001 -28 1345 6 386 38 703 111
1145 261 688 235 1235 522 1688 885 30 24 56 43 59 43 3 0 -7 -17 -23 -37z
m426 -75 c358 -190 724 -535 1034 -973 84 -119 224 -349 276 -456 l33 -66 -72
-159 c-114 -253 -347 -668 -555 -992 l-46 -73 -43 26 c-148 92 -428 204 -607
242 -123 26 -442 26 -555 -1 -175 -40 -376 -129 -515 -227 -100 -70 -239 -212
-323 -329 -79 -112 -201 -352 -253 -499 -156 -445 -198 -1010 -108 -1471 31
-164 31 -172 -8 -202 -45 -34 -357 -229 -503 -315 -273 -160 -645 -349 -669
-340 -7 3 -32 38 -56 79 -111 189 -267 354 -460 485 -168 114 -415 205 -705
262 -247 49 -335 56 -665 56 -330 -1 -473 -15 -730 -71 -345 -76 -809 -235
-872 -298 -46 -46 -35 -46 347 -1 651 76 959 95 1415 90 302 -4 401 -14 585
-59 345 -85 601 -239 769 -464 196 -260 284 -645 208 -902 -41 -135 -102 -245
-131 -237 -14 3 -17 0 -14 -14 4 -14 -10 -35 -45 -70 l-51 -51 -11 44 c-51
198 -107 347 -163 435 -50 79 -53 68 -53 -209 -1 -139 -4 -287 -8 -330 -8 -85
-11 -88 -106 -107 -25 -6 -63 -14 -85 -19 -22 -6 -74 -13 -116 -17 l-76 -6 -6
89 c-14 194 -77 429 -143 535 -20 31 -39 57 -44 57 -15 0 -19 -44 -25 -270 -7
-244 -17 -339 -37 -352 -17 -11 -62 -1 -123 27 -27 12 -62 25 -77 29 -15 3
-39 17 -54 31 -15 14 -31 25 -37 25 -15 0 -128 83 -189 139 -135 123 -263 335
-423 701 -103 233 -124 260 -144 183 -26 -96 -23 -274 5 -470 6 -39 5 -43 -15
-43 -11 0 -21 5 -21 10 0 7 -6 7 -20 0 -22 -12 -150 0 -271 25 -41 9 -83 16
-94 16 -10 0 -25 5 -32 10 -6 6 -21 8 -33 4 -14 -5 -20 -2 -20 10 0 9 -4 14
-9 10 -30 -18 -511 120 -543 156 -9 11 -26 19 -37 19 -30 0 -101 29 -138 57
-17 12 -39 23 -47 23 -9 0 -16 7 -16 15 0 8 -9 15 -19 15 -28 0 -52 11 -45 21
3 5 -4 9 -15 9 -12 0 -21 4 -21 9 0 5 -13 11 -29 14 -18 4 -32 14 -36 28 -5
14 -10 18 -14 10 -5 -8 -13 -5 -26 9 -18 20 -17 20 13 26 18 4 32 11 32 16 0
6 -9 7 -22 3 -48 -16 -83 -11 -93 12 -5 13 -15 23 -22 23 -17 0 -73 50 -73 65
0 8 -9 16 -19 20 -23 7 -164 153 -191 198 -11 17 -20 42 -20 54 0 15 -5 21
-14 17 -11 -4 -17 5 -22 30 -3 20 -10 36 -15 36 -5 0 -9 11 -9 24 0 13 -6 29
-14 35 -16 13 -58 124 -61 161 -1 14 -9 39 -17 55 -31 60 -71 275 -98 520 -18
164 -24 564 -11 740 71 958 416 1894 974 2640 92 123 293 371 308 381 5 3 28
-8 51 -24 190 -128 530 -287 815 -381 450 -149 973 -231 1472 -231 92 0 93 0
87 -22 -15 -52 -18 -200 -6 -275 15 -97 58 -218 98 -275 49 -70 175 -190 243
-231 35 -21 100 -50 144 -64 70 -24 96 -27 210 -27 149 0 203 12 325 75 221
114 345 295 389 571 16 96 -22 277 -86 401 -26 52 -22 66 19 67 48 0 426 132
623 218 462 199 799 416 1147 737 126 117 351 377 425 493 40 61 38 61 153 0z
m-7000 -258 c226 -169 354 -247 668 -405 l132 -66 -19 -27 c-11 -15 -68 -81
-126 -147 -200 -224 -405 -501 -554 -749 -472 -786 -751 -1747 -764 -2628 -1
-64 -5 -114 -9 -110 -4 4 -38 63 -76 132 -130 236 -264 441 -394 608 -80 100
-71 69 -247 852 -156 693 -155 690 -144 701 4 4 59 40 122 79 131 81 276 190
409 304 51 45 96 82 101 84 4 1 49 -45 100 -103 83 -95 111 -120 111 -97 0 26
-54 202 -79 257 l-30 66 32 37 c116 133 240 324 353 544 48 94 94 172 101 175
8 3 85 -29 172 -71 157 -75 181 -84 181 -67 0 29 -179 214 -257 266 -24 15
-43 31 -43 35 0 4 9 36 19 71 19 61 72 264 85 322 4 15 13 27 21 27 7 0 68
-41 135 -90z m3177 -576 c-3 -3 -12 -4 -19 -1 -8 3 -5 6 6 6 11 1 17 -2 13 -5z
m935 -595 c78 -17 145 -54 208 -118 144 -143 171 -357 69 -537 -59 -105 -182
-189 -309 -212 -259 -48 -510 168 -510 437 0 119 39 218 117 302 53 57 126
106 186 124 53 17 169 19 239 4z m-10034 -908 c309 -218 685 -401 1057 -515
65 -20 120 -37 121 -39 2 -2 -4 -30 -13 -62 -24 -86 -24 -289 0 -374 99 -360
465 -570 828 -476 125 33 263 122 344 223 95 119 137 239 152 437 l8 100 45 2
c109 6 356 37 480 59 414 76 767 213 1065 413 83 56 105 66 109 54 4 -9 45
-190 92 -402 86 -392 163 -712 184 -766 6 -16 37 -61 68 -99 305 -377 516
-784 641 -1241 133 -482 163 -983 89 -1494 l-12 -84 -85 6 c-120 8 -443 64
-457 79 -7 7 -26 101 -42 208 -152 981 -502 1633 -980 1826 -128 51 -175 59
-367 59 -194 0 -260 -12 -389 -69 -180 -80 -377 -278 -481 -484 -81 -160 -153
-428 -171 -634 -3 -38 -9 -68 -12 -68 -4 0 -72 36 -152 79 l-145 79 -6 269
c-8 301 -22 400 -85 607 -134 439 -361 745 -639 863 -125 53 -343 69 -515 39
-189 -34 -384 -119 -538 -236 -50 -38 -96 -70 -100 -70 -21 0 -344 360 -548
610 -103 127 -321 415 -356 470 -16 24 -14 29 100 200 64 96 178 274 254 395
75 121 144 230 153 243 l16 22 95 -80 c53 -44 139 -111 192 -149z m12830 -362
c167 -18 482 -140 579 -224 l35 -30 -41 -61 c-22 -33 -56 -76 -76 -95 -19 -19
-35 -40 -35 -47 0 -8 -13 -26 -29 -41 -15 -14 -31 -36 -35 -48 -4 -12 -16 -25
-27 -28 -10 -4 -19 -14 -19 -24 0 -9 -13 -30 -30 -46 -16 -16 -30 -23 -30 -16
0 7 -5 9 -10 6 -6 -4 -8 -15 -5 -26 4 -10 2 -19 -4 -19 -15 0 -40 40 -47 76
-5 25 -10 31 -25 27 -15 -4 -20 1 -25 26 -4 17 -10 31 -15 31 -5 0 -41 30 -80
68 -43 39 -69 59 -66 47 16 -49 68 -280 87 -385 12 -63 34 -164 50 -225 78
-299 110 -812 66 -1072 -10 -62 -21 -111 -25 -109 -3 2 -7 -15 -7 -38 -2 -51
-49 -200 -70 -221 -8 -8 -12 -19 -9 -25 3 -5 2 -10 -3 -10 -5 0 -12 -12 -15
-27 -9 -44 -79 -151 -143 -220 -32 -35 -62 -63 -67 -63 -4 0 -5 5 -2 10 3 6 4
10 0 10 -3 0 -10 -11 -15 -25 -5 -14 -14 -25 -20 -25 -13 0 -40 61 -40 90 0
11 -4 20 -10 20 -5 0 -10 8 -10 19 0 10 -6 24 -13 30 -8 6 -22 30 -32 53 -22
53 -66 159 -90 216 -10 23 -24 42 -32 42 -25 0 -35 -53 -40 -215 -3 -88 -10
-165 -15 -172 -6 -7 -2 -23 12 -45 11 -18 20 -42 20 -52 0 -24 22 -89 33 -97
17 -12 -23 -29 -118 -48 -102 -20 -234 -32 -267 -23 -23 6 -48 54 -77 147 -24
76 -22 72 -88 255 -61 171 -73 183 -97 98 -16 -58 -31 -160 -42 -283 l-6 -80
-29 35 c-23 27 -28 42 -24 65 2 16 2 24 -1 18 -11 -25 -31 -12 -71 49 -105
161 -173 361 -208 610 -80 569 50 1227 323 1634 172 256 404 412 712 478 79
17 237 20 368 5z m-10916 -50 c73 -16 116 -39 181 -99 38 -34 68 -74 89 -118
31 -63 33 -72 33 -178 0 -109 -1 -112 -39 -188 -165 -325 -628 -292 -751 54
-34 95 -14 264 40 351 49 76 134 143 223 175 46 16 154 18 224 3z m-830 -1230
c91 -19 157 -58 244 -144 99 -98 149 -171 224 -328 124 -260 180 -505 181
-799 1 -288 -67 -532 -199 -710 -44 -60 -142 -152 -192 -182 l-32 -18 9 78
c10 97 11 240 1 250 -11 10 -40 -30 -100 -139 -76 -141 -140 -231 -165 -235
-38 -6 -155 65 -186 112 -13 20 -12 29 11 96 22 64 25 93 26 200 0 80 -5 136
-13 155 -12 29 -13 30 -28 10 -8 -11 -36 -63 -63 -115 -27 -52 -55 -104 -63
-114 -14 -19 -15 -18 -35 20 -34 66 -100 273 -121 379 -49 246 -52 568 -7 785
l24 115 -111 111 c-62 61 -128 129 -148 151 -20 22 -43 43 -52 46 -20 7 -21
16 -4 37 36 45 214 155 310 192 133 51 363 73 489 47z m2483 -708 c339 -123
605 -529 765 -1170 56 -225 110 -507 110 -576 l0 -33 -67 13 c-84 16 -459 110
-497 125 -26 10 -28 14 -22 48 30 174 33 437 6 526 -15 48 -30 32 -30 -31 0
-91 -96 -328 -200 -493 -29 -47 -68 -110 -87 -140 -38 -62 -161 -192 -177
-187 -5 2 -27 70 -47 151 -20 81 -40 150 -43 154 -11 10 -33 -21 -54 -78 -17
-48 -26 -95 -58 -299 l-5 -34 -85 6 c-88 6 -148 27 -164 58 -6 10 -19 60 -29
111 -28 136 -53 232 -62 242 -12 13 -46 -49 -75 -137 -25 -74 -27 -77 -41 -58
-31 45 -92 180 -116 257 -51 161 -62 244 -61 459 0 293 36 463 144 680 92 186
194 296 344 372 103 52 167 63 341 59 124 -2 161 -7 210 -25z"/>
<path d="M9580 12073 c-172 -60 -322 -267 -376 -518 -24 -113 -24 -307 0 -410
39 -167 127 -309 231 -370 63 -36 158 -58 219 -50 182 24 374 232 438 474 25
94 36 365 19 456 -36 192 -158 362 -299 415 -64 24 -168 26 -232 3z m291 -393
c72 -85 61 -240 -22 -315 -50 -45 -80 -52 -121 -28 -54 31 -73 76 -73 168 0
92 22 145 77 190 45 36 102 30 139 -15z"/>
<path d="M15085 9329 c-4 -6 -5 -12 -2 -15 2 -3 7 2 10 11 7 17 1 20 -8 4z"/>
<path d="M14980 9279 c0 -5 5 -7 10 -4 6 3 10 8 10 11 0 2 -4 4 -10 4 -5 0
-10 -5 -10 -11z"/>
<path d="M15067 9231 c-4 -17 -3 -21 5 -13 5 5 8 16 6 23 -3 8 -7 3 -11 -10z"/>
<path d="M14746 8691 c-4 -7 -5 -15 -2 -18 9 -9 19 4 14 18 -4 11 -6 11 -12 0z"/>
<path d="M7890 8510 c0 -5 5 -10 11 -10 5 0 7 5 4 10 -3 6 -8 10 -11 10 -2 0
-4 -4 -4 -10z"/>
<path d="M7930 8486 c0 -2 8 -10 18 -17 15 -13 16 -12 3 4 -13 16 -21 21 -21
13z"/>
<path d="M14070 8470 c-9 -6 -10 -10 -3 -10 6 0 15 5 18 10 8 12 4 12 -15 0z"/>
<path d="M7905 8030 c3 -5 8 -10 11 -10 2 0 4 5 4 10 0 6 -5 10 -11 10 -5 0
-7 -4 -4 -10z"/>
<path d="M8015 8030 c-3 -5 -2 -10 4 -10 5 0 13 5 16 10 3 6 2 10 -4 10 -5 0
-13 -4 -16 -10z"/>
<path d="M8225 7990 c-3 -5 -2 -10 4 -10 5 0 13 5 16 10 3 6 2 10 -4 10 -5 0
-13 -4 -16 -10z"/>
<path d="M8875 7930 c3 -5 8 -10 11 -10 2 0 4 5 4 10 0 6 -5 10 -11 10 -5 0
-7 -4 -4 -10z"/>
<path d="M13690 7830 c-20 -12 -5 -24 16 -12 9 5 12 12 7 15 -5 3 -15 2 -23
-3z"/>
<path d="M8170 7820 c0 -5 7 -10 15 -10 8 0 15 5 15 10 0 6 -7 10 -15 10 -8 0
-15 -4 -15 -10z"/>
<path d="M12408 7753 c6 -2 18 -2 25 0 6 3 1 5 -13 5 -14 0 -19 -2 -12 -5z"/>
<path d="M8388 7723 c7 -3 16 -2 19 1 4 3 -2 6 -13 5 -11 0 -14 -3 -6 -6z"/>
<path d="M13408 7713 c7 -3 16 -2 19 1 4 3 -2 6 -13 5 -11 0 -14 -3 -6 -6z"/>
<path d="M13418 7673 c7 -3 16 -2 19 1 4 3 -2 6 -13 5 -11 0 -14 -3 -6 -6z"/>
<path d="M8415 7650 c3 -5 11 -10 16 -10 6 0 7 5 4 10 -3 6 -11 10 -16 10 -6
0 -7 -4 -4 -10z"/>
<path d="M8499 7627 c6 -8 8 -17 4 -21 -4 -4 0 -4 10 0 21 8 22 20 1 28 -24 9
-28 7 -15 -7z"/>
<path d="M8577 7590 c3 -11 15 -26 27 -32 18 -10 19 -9 8 4 -7 9 -10 23 -6 32
4 11 0 16 -14 16 -15 0 -19 -5 -15 -20z"/>
<path d="M10910 7540 c0 -19 3 -21 12 -12 9 9 9 15 0 24 -9 9 -12 7 -12 -12z"/>
<path d="M8700 7520 c20 -13 33 -13 25 0 -3 6 -14 10 -23 10 -15 0 -15 -2 -2
-10z"/>
<path d="M13058 7513 c7 -3 16 -2 19 1 4 3 -2 6 -13 5 -11 0 -14 -3 -6 -6z"/>
<path d="M12935 7470 c-3 -5 3 -10 14 -10 12 0 21 5 21 10 0 6 -6 10 -14 10
-8 0 -18 -4 -21 -10z"/>
<path d="M12780 7400 c-13 -9 -13 -10 0 -10 8 0 22 5 30 10 13 9 13 10 0 10
-8 0 -22 -5 -30 -10z"/>
<path d="M12130 7380 c0 -5 5 -10 10 -10 6 0 10 5 10 10 0 6 -4 10 -10 10 -5
0 -10 -4 -10 -10z"/>
<path d="M12660 7365 c-14 -8 -20 -14 -15 -14 6 0 21 6 35 14 14 8 21 14 15
14 -5 0 -21 -6 -35 -14z"/>
<path d="M11020 7315 c7 -9 15 -13 17 -11 7 7 -7 26 -19 26 -6 0 -6 -6 2 -15z"/>
<path d="M12010 7280 c-9 -6 -10 -10 -3 -10 6 0 15 5 18 10 8 12 4 12 -15 0z"/>
<path d="M9405 7270 c-3 -5 -1 -10 4 -10 6 0 11 5 11 10 0 6 -2 10 -4 10 -3 0
-8 -4 -11 -10z"/>
<path d="M11125 7230 c-3 -5 -2 -10 4 -10 5 0 13 5 16 10 3 6 2 10 -4 10 -5 0
-13 -4 -16 -10z"/>
<path d="M11915 7190 c3 -5 16 -10 28 -9 21 0 21 1 2 9 -28 12 -37 12 -30 0z"/>
<path d="M9922 7164 c-10 -12 -10 -14 2 -14 17 0 30 16 19 23 -5 3 -14 -1 -21
-9z"/>
<path d="M2942 10011 c-182 -68 -344 -276 -408 -526 -74 -290 13 -587 200
-682 45 -23 58 -25 150 -21 92 3 107 7 165 38 110 59 228 194 288 328 62 139
76 206 77 367 0 165 -13 239 -60 325 -35 64 -98 126 -158 157 -70 36 -179 42
-254 14z m241 -361 c76 -60 52 -267 -37 -321 -31 -19 -89 -25 -121 -13 -9 4
-25 25 -36 47 -48 93 -2 238 91 285 54 27 70 28 103 2z"/>
<path d="M5578 9429 c-156 -23 -344 -113 -476 -228 -67 -59 -134 -141 -144
-176 -15 -59 34 -128 91 -128 14 0 78 6 142 12 186 21 324 -3 521 -90 49 -21
102 -39 118 -39 49 0 39 37 -25 103 -92 94 -231 178 -351 212 -32 10 -63 20
-67 24 -9 9 167 93 266 127 40 14 137 38 216 55 145 30 171 40 171 65 0 56
-266 92 -462 63z"/>
<path d="M3829 8667 c-8 -7 -24 -24 -33 -39 -22 -34 -23 -32 113 -223 90 -125
93 -132 89 -175 -11 -113 -105 -235 -243 -316 -128 -75 -199 -91 -324 -75
-106 14 -189 58 -276 145 -75 76 -173 212 -223 311 -16 33 -39 71 -50 85 -20
24 -21 24 -40 6 -51 -46 -75 -205 -48 -320 21 -89 77 -194 138 -262 79 -86
255 -191 350 -209 l36 -7 -1 -176 c-1 -539 168 -972 446 -1140 141 -85 348
-75 506 25 76 48 205 181 266 273 65 100 136 243 180 365 38 105 99 339 110
421 12 94 10 91 67 99 78 11 203 52 283 93 133 69 267 231 295 357 25 110 6
263 -35 278 -14 6 -49 -30 -154 -156 -94 -113 -206 -208 -300 -255 -70 -35
-81 -37 -185 -40 -94 -3 -120 0 -167 18 -101 37 -262 178 -303 264 -29 61 -57
188 -51 226 5 28 33 62 131 160 131 134 143 155 107 198 -21 25 -67 32 -393
62 -249 23 -270 24 -291 7z"/>
<path d="M7888 2183 c7 -3 16 -2 19 1 4 3 -2 6 -13 5 -11 0 -14 -3 -6 -6z"/>
<path d="M7877 2129 c4 -16 8 -17 14 -7 13 19 11 28 -5 28 -9 0 -12 -7 -9 -21z"/>
<path d="M8415 1750 c3 -5 11 -10 16 -10 6 0 7 5 4 10 -3 6 -11 10 -16 10 -6
0 -7 -4 -4 -10z"/>
<path d="M8540 1650 c0 -5 5 -10 10 -10 6 0 10 5 10 10 0 6 -4 10 -10 10 -5 0
-10 -4 -10 -10z"/>
<path d="M9518 1423 c6 -2 18 -2 25 0 6 3 1 5 -13 5 -14 0 -19 -2 -12 -5z"/>
<path d="M10095 1230 c-3 -5 1 -10 10 -10 9 0 13 5 10 10 -3 6 -8 10 -10 10
-2 0 -7 -4 -10 -10z"/>
<path d="M10135 1179 c-4 -6 -5 -12 -2 -15 2 -3 7 2 10 11 7 17 1 20 -8 4z"/>
<path d="M10210 1050 c0 -5 5 -10 11 -10 5 0 7 5 4 10 -3 6 -8 10 -11 10 -2 0
-4 -4 -4 -10z"/>
<path d="M11610 1038 c0 -9 5 -20 10 -23 13 -8 13 5 0 25 -8 13 -10 13 -10 -2z"/>
<path d="M10377 909 c7 -7 15 -10 18 -7 3 3 -2 9 -12 12 -14 6 -15 5 -6 -5z"/>
<path d="M11342 850 c0 -19 2 -27 5 -17 2 9 2 25 0 35 -3 9 -5 1 -5 -18z"/>
<path d="M11000 700 c0 -5 14 -10 30 -10 17 0 30 5 30 10 0 6 -13 10 -30 10
-16 0 -30 -4 -30 -10z"/>
<path d="M15200 4730 c0 -5 5 -10 10 -10 6 0 10 5 10 10 0 6 -4 10 -10 10 -5
0 -10 -4 -10 -10z"/>
<path d="M15096 4701 c-4 -7 -5 -15 -2 -18 9 -9 19 4 14 18 -4 11 -6 11 -12 0z"/>
<path d="M15170 4685 c-8 -9 -8 -15 -2 -15 12 0 26 19 19 26 -2 2 -10 -2 -17
-11z"/>
<path d="M14971 3774 c0 -11 3 -14 6 -6 3 7 2 16 -1 19 -3 4 -6 -2 -5 -13z"/>
<path d="M15021 3744 c0 -11 3 -14 6 -6 3 7 2 16 -1 19 -3 4 -6 -2 -5 -13z"/>
<path d="M15021 3064 c0 -11 3 -14 6 -6 3 7 2 16 -1 19 -3 4 -6 -2 -5 -13z"/>
<path d="M14981 2954 c0 -11 3 -14 6 -6 3 7 2 16 -1 19 -3 4 -6 -2 -5 -13z"/>
<path d="M14976 2874 c-4 -9 -4 -19 -1 -22 2 -3 7 3 11 12 4 9 4 19 1 22 -2 3
-7 -3 -11 -12z"/>
<path d="M14867 2613 c-4 -3 -7 -11 -7 -17 0 -6 5 -5 12 2 6 6 9 14 7 17 -3 3
-9 2 -12 -2z"/>
<path d="M13743 2420 c0 -41 2 -58 4 -37 2 20 2 54 0 75 -2 20 -4 3 -4 -38z"/>
<path d="M14076 2205 c4 -8 8 -15 10 -15 2 0 4 7 4 15 0 8 -4 15 -10 15 -5 0
-7 -7 -4 -15z"/>
</g>
</svg>
